<svg xmlns="http://www.w3.org/2000/svg" viewBox="0 0 256 256" fill="none" role="img" aria-label="Acqua naturale 1,5 L"><title>Acqua naturale 1,5 L</title><desc>Acqua · Formato grande</desc><circle cx="128" cy="128" r="92" fill="#0EA5E933" fill-opacity="0.16"/><circle cx="128" cy="128" r="92" stroke="#0EA5E9" stroke-width="8"/><circle cx="128" cy="128" r="108" stroke="#172033" stroke-opacity="0.08" stroke-width="2"/><circle cx="77" cy="58" r="4.5" fill="#0EA5E9" fill-opacity="0.75"/><circle cx="124" cy="45" r="6" fill="#0EA5E9" fill-opacity="1"/><circle cx="168" cy="64" r="4.5" fill="#0EA5E9" fill-opacity="0.75"/><g stroke="#172033" stroke-width="10" stroke-linecap="round" stroke-linejoin="round"><path d="M112 78h32"/><path d="M118 56h20v22h-20z" fill="#0EA5E933" stroke="#172033"/><path d="M102 88c0-8 6-14 14-14h24c8 0 14 6 14 14v48c0 14-10 26-24 30l-2 .6-2-.6c-14-4-24-16-24-30V88Z" fill="#0EA5E933"/></g><circle cx="180" cy="110" r="8" fill="#0EA5E9" fill-opacity="0.22" stroke="#0EA5E9" stroke-width="4"/><circle cx="196" cy="124" r="12" fill="#0EA5E9" fill-opacity="0.22" stroke="#0EA5E9" stroke-width="4"/><circle cx="176" cy="136" r="6" fill="#0EA5E9" fill-opacity="0.22" stroke="#0EA5E9" stroke-width="4"/><circle cx="192" cy="148" r="4" fill="#0EA5E9" fill-opacity="0.22" stroke="#0EA5E9" stroke-width="4"/><g transform="translate(168 36)"><rect x="0" y="0" width="52" height="28" rx="14" fill="#FFF7ED" stroke="#0EA5E9" stroke-width="3"/><text x="26" y="19" text-anchor="middle" font-family="Arial, Helvetica, sans-serif" font-size="12" font-weight="700" fill="#172033">PK</text></g><g transform="translate(76 176)"><rect x="0" y="0" width="104" height="40" rx="20" fill="#172033"/><rect x="4" y="4" width="96" height="32" rx="16" fill="#0EA5E9"/><text x="52" y="26" text-anchor="middle" font-family="Arial, Helvetica, sans-serif" font-size="18" font-weight="700" fill="white" letter-spacing="1">AN</text></g></svg>