<svg xmlns="http://www.w3.org/2000/svg" viewBox="0 0 256 256" fill="none" role="img" aria-label="Aperol"><title>Aperol</title><desc>Aperitivi · Aperitivo per spritz</desc><circle cx="128" cy="128" r="92" fill="#DC262633" fill-opacity="0.16"/><circle cx="128" cy="128" r="92" stroke="#DC2626" stroke-width="8"/><circle cx="128" cy="128" r="108" stroke="#172033" stroke-opacity="0.08" stroke-width="2"/><circle cx="79" cy="65" r="4.5" fill="#DC2626" fill-opacity="0.75"/><circle cx="132" cy="54" r="6" fill="#DC2626" fill-opacity="1"/><circle cx="184" cy="68" r="4.5" fill="#DC2626" fill-opacity="0.75"/><g stroke="#172033" stroke-width="10" stroke-linecap="round" stroke-linejoin="round"><path d="M88 84h80l-16 28c-6 10-16 16-28 16h-4c-12 0-22-6-28-16L88 84Z" fill="#DC262633"/><path d="M128 128v26"/><path d="M108 166h40"/></g><g transform="translate(154 108)"><path d="M0 34a34 34 0 1 1 68 0H0Z" fill="#DC2626" fill-opacity="0.2" stroke="#DC2626" stroke-width="6"/><path d="M34 2v30M10 32l24-30M58 32 34 2" stroke="#DC2626" stroke-width="6" stroke-linecap="round"/></g><g transform="translate(168 36)"><rect x="0" y="0" width="52" height="28" rx="14" fill="#FFF7ED" stroke="#DC2626" stroke-width="3"/><text x="26" y="19" text-anchor="middle" font-family="Arial, Helvetica, sans-serif" font-size="12" font-weight="700" fill="#172033">BTL</text></g><g transform="translate(76 176)"><rect x="0" y="0" width="104" height="40" rx="20" fill="#172033"/><rect x="4" y="4" width="96" height="32" rx="16" fill="#DC2626"/><text x="52" y="26" text-anchor="middle" font-family="Arial, Helvetica, sans-serif" font-size="18" font-weight="700" fill="white" letter-spacing="1">AP</text></g></svg>