<svg xmlns="http://www.w3.org/2000/svg" viewBox="0 0 256 256" fill="none" role="img" aria-label="Birra analcolica"><title>Birra analcolica</title><desc>Birre · Zero alcol</desc><circle cx="128" cy="128" r="92" fill="#CA8A0433" fill-opacity="0.16"/><circle cx="128" cy="128" r="92" stroke="#CA8A04" stroke-width="8"/><circle cx="128" cy="128" r="108" stroke="#172033" stroke-opacity="0.08" stroke-width="2"/><circle cx="85" cy="50" r="4.5" fill="#CA8A04" fill-opacity="0.75"/><circle cx="111" cy="40" r="6" fill="#CA8A04" fill-opacity="1"/><circle cx="165" cy="56" r="4.5" fill="#CA8A04" fill-opacity="0.75"/><g stroke="#172033" stroke-width="10" stroke-linecap="round" stroke-linejoin="round"><path d="M96 84h56l-8 62c-1 8-8 14-16 14h-8c-8 0-15-6-16-14l-8-62Z" fill="#CA8A0433"/><path d="M152 96h12c8 0 14 6 14 14v14c0 8-6 14-14 14h-10"/><path d="M96 84c6-12 16-18 28-18 8 0 15 3 20 10 4-4 9-6 15-6 10 0 18 8 18 18 0 4-1 8-3 12" fill="none"/></g><path d="M178 108c14 4 22 16 22 30 0 14-10 24-24 24-12 0-22-9-22-21 0-11 8-20 19-21-2-7 0-12 5-17Z" fill="#CA8A04" fill-opacity="0.18" stroke="#CA8A04" stroke-width="6" stroke-linejoin="round"/><g transform="translate(168 36)"><rect x="0" y="0" width="52" height="28" rx="14" fill="#FFF7ED" stroke="#CA8A04" stroke-width="3"/><text x="26" y="19" text-anchor="middle" font-family="Arial, Helvetica, sans-serif" font-size="12" font-weight="700" fill="#172033">PK</text></g><g transform="translate(76 176)"><rect x="0" y="0" width="104" height="40" rx="20" fill="#172033"/><rect x="4" y="4" width="96" height="32" rx="16" fill="#CA8A04"/><text x="52" y="26" text-anchor="middle" font-family="Arial, Helvetica, sans-serif" font-size="18" font-weight="700" fill="white" letter-spacing="1">BA</text></g></svg>