<svg xmlns="http://www.w3.org/2000/svg" viewBox="0 0 256 256" fill="none" role="img" aria-label="Captain Morgan Original Spiced Gold"><title>Captain Morgan Original Spiced Gold</title><desc>Rum · Spiced rum</desc><circle cx="128" cy="128" r="92" fill="#B4530933" fill-opacity="0.16"/><circle cx="128" cy="128" r="92" stroke="#B45309" stroke-width="8"/><circle cx="128" cy="128" r="108" stroke="#172033" stroke-opacity="0.08" stroke-width="2"/><circle cx="75" cy="49" r="4.5" fill="#B45309" fill-opacity="0.75"/><circle cx="125" cy="46" r="6" fill="#B45309" fill-opacity="1"/><circle cx="165" cy="56" r="4.5" fill="#B45309" fill-opacity="0.75"/><g stroke="#172033" stroke-width="10" stroke-linecap="round" stroke-linejoin="round"><path d="M112 78h32"/><path d="M118 56h20v22h-20z" fill="#B4530933" stroke="#172033"/><path d="M102 88c0-8 6-14 14-14h24c8 0 14 6 14 14v48c0 14-10 26-24 30l-2 .6-2-.6c-14-4-24-16-24-30V88Z" fill="#B4530933"/></g><path d="M182 104c10 12 14 22 14 34 0 16-10 28-24 28s-24-11-24-25c0-8 3-15 8-22 1 8 5 14 12 18 1-15 6-26 14-33Z" fill="#B45309" fill-opacity="0.22" stroke="#B45309" stroke-width="6" stroke-linejoin="round"/><g transform="translate(168 36)"><rect x="0" y="0" width="52" height="28" rx="14" fill="#FFF7ED" stroke="#B45309" stroke-width="3"/><text x="26" y="19" text-anchor="middle" font-family="Arial, Helvetica, sans-serif" font-size="12" font-weight="700" fill="#172033">BTL</text></g><g transform="translate(76 176)"><rect x="0" y="0" width="104" height="40" rx="20" fill="#172033"/><rect x="4" y="4" width="96" height="32" rx="16" fill="#B45309"/><text x="52" y="26" text-anchor="middle" font-family="Arial, Helvetica, sans-serif" font-size="18" font-weight="700" fill="white" letter-spacing="1">CM</text></g></svg>