<svg xmlns="http://www.w3.org/2000/svg" viewBox="0 0 256 256" fill="none" role="img" aria-label="Champagne brut"><title>Champagne brut</title><desc>Vini e bollicine · Per carta premium</desc><circle cx="128" cy="128" r="92" fill="#BE185D33" fill-opacity="0.16"/><circle cx="128" cy="128" r="92" stroke="#BE185D" stroke-width="8"/><circle cx="128" cy="128" r="108" stroke="#172033" stroke-opacity="0.08" stroke-width="2"/><circle cx="75" cy="57" r="4.5" fill="#BE185D" fill-opacity="0.75"/><circle cx="122" cy="44" r="6" fill="#BE185D" fill-opacity="1"/><circle cx="174" cy="53" r="4.5" fill="#BE185D" fill-opacity="0.75"/><g stroke="#172033" stroke-width="10" stroke-linecap="round" stroke-linejoin="round"><path d="M112 78h32"/><path d="M118 56h20v22h-20z" fill="#BE185D33" stroke="#172033"/><path d="M102 88c0-8 6-14 14-14h24c8 0 14 6 14 14v48c0 14-10 26-24 30l-2 .6-2-.6c-14-4-24-16-24-30V88Z" fill="#BE185D33"/></g><path d="M128 98v52" stroke="#BE185D" stroke-width="8" stroke-linecap="round"/><circle cx="178" cy="114" r="7" fill="#BE185D" fill-opacity="0.22" stroke="#BE185D" stroke-width="4"/><circle cx="192" cy="114" r="7" fill="#BE185D" fill-opacity="0.22" stroke="#BE185D" stroke-width="4"/><circle cx="171" cy="128" r="7" fill="#BE185D" fill-opacity="0.22" stroke="#BE185D" stroke-width="4"/><circle cx="185" cy="128" r="7" fill="#BE185D" fill-opacity="0.22" stroke="#BE185D" stroke-width="4"/><circle cx="199" cy="128" r="7" fill="#BE185D" fill-opacity="0.22" stroke="#BE185D" stroke-width="4"/><circle cx="178" cy="142" r="7" fill="#BE185D" fill-opacity="0.22" stroke="#BE185D" stroke-width="4"/><circle cx="192" cy="142" r="7" fill="#BE185D" fill-opacity="0.22" stroke="#BE185D" stroke-width="4"/><path d="M185 100c4-8 10-14 18-18" stroke="#BE185D" stroke-width="5" stroke-linecap="round"/><g transform="translate(168 36)"><rect x="0" y="0" width="52" height="28" rx="14" fill="#FFF7ED" stroke="#BE185D" stroke-width="3"/><text x="26" y="19" text-anchor="middle" font-family="Arial, Helvetica, sans-serif" font-size="12" font-weight="700" fill="#172033">BTL</text></g><g transform="translate(76 176)"><rect x="0" y="0" width="104" height="40" rx="20" fill="#172033"/><rect x="4" y="4" width="96" height="32" rx="16" fill="#BE185D"/><text x="52" y="26" text-anchor="middle" font-family="Arial, Helvetica, sans-serif" font-size="18" font-weight="700" fill="white" letter-spacing="1">CB</text></g></svg>