<svg xmlns="http://www.w3.org/2000/svg" viewBox="0 0 256 256" fill="none" role="img" aria-label="Coca-Cola Zero lattina 330 ml"><title>Coca-Cola Zero lattina 330 ml</title><desc>Bibite · Formato lattina</desc><circle cx="128" cy="128" r="92" fill="#2563EB33" fill-opacity="0.16"/><circle cx="128" cy="128" r="92" stroke="#2563EB" stroke-width="8"/><circle cx="128" cy="128" r="108" stroke="#172033" stroke-opacity="0.08" stroke-width="2"/><circle cx="82" cy="54" r="4.5" fill="#2563EB" fill-opacity="0.75"/><circle cx="122" cy="33" r="6" fill="#2563EB" fill-opacity="1"/><circle cx="167" cy="54" r="4.5" fill="#2563EB" fill-opacity="0.75"/><g stroke="#172033" stroke-width="10" stroke-linecap="round" stroke-linejoin="round"><rect x="98" y="72" width="60" height="96" rx="16" fill="#2563EB33"/><path d="M108 88h40"/><path d="M108 152h40"/></g><path d="M178 104l-18 34h14l-10 26 30-38h-14l10-22Z" fill="#2563EB" stroke="#2563EB" stroke-width="4" stroke-linejoin="round"/><g transform="translate(168 36)"><rect x="0" y="0" width="52" height="28" rx="14" fill="#FFF7ED" stroke="#2563EB" stroke-width="3"/><text x="26" y="19" text-anchor="middle" font-family="Arial, Helvetica, sans-serif" font-size="12" font-weight="700" fill="#172033">PK</text></g><g transform="translate(76 176)"><rect x="0" y="0" width="104" height="40" rx="20" fill="#172033"/><rect x="4" y="4" width="96" height="32" rx="16" fill="#2563EB"/><text x="52" y="26" text-anchor="middle" font-family="Arial, Helvetica, sans-serif" font-size="18" font-weight="700" fill="white" letter-spacing="1">CC</text></g></svg>