<svg xmlns="http://www.w3.org/2000/svg" viewBox="0 0 256 256" fill="none" role="img" aria-label="Grand Marnier"><title>Grand Marnier</title><desc>Liquori · Liquore arancia cognac</desc><circle cx="128" cy="128" r="92" fill="#9333EA33" fill-opacity="0.16"/><circle cx="128" cy="128" r="92" stroke="#9333EA" stroke-width="8"/><circle cx="128" cy="128" r="108" stroke="#172033" stroke-opacity="0.08" stroke-width="2"/><circle cx="88" cy="63" r="4.5" fill="#9333EA" fill-opacity="0.75"/><circle cx="132" cy="47" r="6" fill="#9333EA" fill-opacity="1"/><circle cx="181" cy="72" r="4.5" fill="#9333EA" fill-opacity="0.75"/><g stroke="#172033" stroke-width="10" stroke-linecap="round" stroke-linejoin="round"><path d="M112 78h32"/><path d="M118 56h20v22h-20z" fill="#9333EA33" stroke="#172033"/><path d="M102 88c0-8 6-14 14-14h24c8 0 14 6 14 14v48c0 14-10 26-24 30l-2 .6-2-.6c-14-4-24-16-24-30V88Z" fill="#9333EA33"/></g><g transform="translate(154 108)"><path d="M0 34a34 34 0 1 1 68 0H0Z" fill="#9333EA" fill-opacity="0.2" stroke="#9333EA" stroke-width="6"/><path d="M34 2v30M10 32l24-30M58 32 34 2" stroke="#9333EA" stroke-width="6" stroke-linecap="round"/></g><g transform="translate(168 36)"><rect x="0" y="0" width="52" height="28" rx="14" fill="#FFF7ED" stroke="#9333EA" stroke-width="3"/><text x="26" y="19" text-anchor="middle" font-family="Arial, Helvetica, sans-serif" font-size="12" font-weight="700" fill="#172033">BTL</text></g><g transform="translate(76 176)"><rect x="0" y="0" width="104" height="40" rx="20" fill="#172033"/><rect x="4" y="4" width="96" height="32" rx="16" fill="#9333EA"/><text x="52" y="26" text-anchor="middle" font-family="Arial, Helvetica, sans-serif" font-size="18" font-weight="700" fill="white" letter-spacing="1">GM</text></g></svg>