<svg xmlns="http://www.w3.org/2000/svg" viewBox="0 0 256 256" fill="none" role="img" aria-label="Maionese monodose"><title>Maionese monodose</title><desc>Alimentari · Bustine monoporzione</desc><circle cx="128" cy="128" r="92" fill="#F9731633" fill-opacity="0.16"/><circle cx="128" cy="128" r="92" stroke="#F97316" stroke-width="8"/><circle cx="128" cy="128" r="108" stroke="#172033" stroke-opacity="0.08" stroke-width="2"/><circle cx="85" cy="57" r="4.5" fill="#F97316" fill-opacity="0.75"/><circle cx="115" cy="34" r="6" fill="#F97316" fill-opacity="1"/><circle cx="168" cy="62" r="4.5" fill="#F97316" fill-opacity="0.75"/><g stroke="#172033" stroke-width="10" stroke-linecap="round" stroke-linejoin="round"><path d="M84 142h88"/><path d="M94 140c4-30 34-50 62-42 18 5 31 20 36 42" fill="#F9731633"/><path d="M128 84v10"/></g><path d="M162 146c4-18 20-30 38-26 10 2 18 10 18 20 0 14-12 24-28 24-12 0-24-6-30-16 8 4 16 4 24 0 8-4 10-12 6-18-4-5-12-6-18-2-4 2-7 7-10 18Z" fill="#F97316" fill-opacity="0.12" stroke="#F97316" stroke-width="6" stroke-linejoin="round"/><g transform="translate(168 36)"><rect x="0" y="0" width="52" height="28" rx="14" fill="#FFF7ED" stroke="#F97316" stroke-width="3"/><text x="26" y="19" text-anchor="middle" font-family="Arial, Helvetica, sans-serif" font-size="12" font-weight="700" fill="#172033">PK</text></g><g transform="translate(76 176)"><rect x="0" y="0" width="104" height="40" rx="20" fill="#172033"/><rect x="4" y="4" width="96" height="32" rx="16" fill="#F97316"/><text x="52" y="26" text-anchor="middle" font-family="Arial, Helvetica, sans-serif" font-size="18" font-weight="700" fill="white" letter-spacing="1">MM</text></g></svg>