<svg xmlns="http://www.w3.org/2000/svg" viewBox="0 0 256 256" fill="none" role="img" aria-label="Monster Energy"><title>Monster Energy</title><desc>Energy drink · Energy drink</desc><circle cx="128" cy="128" r="92" fill="#7C3AED33" fill-opacity="0.16"/><circle cx="128" cy="128" r="92" stroke="#7C3AED" stroke-width="8"/><circle cx="128" cy="128" r="108" stroke="#172033" stroke-opacity="0.08" stroke-width="2"/><circle cx="84" cy="68" r="4.5" fill="#7C3AED" fill-opacity="0.75"/><circle cx="133" cy="46" r="6" fill="#7C3AED" fill-opacity="1"/><circle cx="183" cy="70" r="4.5" fill="#7C3AED" fill-opacity="0.75"/><g stroke="#172033" stroke-width="10" stroke-linecap="round" stroke-linejoin="round"><rect x="98" y="72" width="60" height="96" rx="16" fill="#7C3AED33"/><path d="M108 88h40"/><path d="M108 152h40"/></g><path d="M178 104l-18 34h14l-10 26 30-38h-14l10-22Z" fill="#7C3AED" stroke="#7C3AED" stroke-width="4" stroke-linejoin="round"/><g transform="translate(168 36)"><rect x="0" y="0" width="52" height="28" rx="14" fill="#FFF7ED" stroke="#7C3AED" stroke-width="3"/><text x="26" y="19" text-anchor="middle" font-family="Arial, Helvetica, sans-serif" font-size="12" font-weight="700" fill="#172033">PK</text></g><g transform="translate(76 176)"><rect x="0" y="0" width="104" height="40" rx="20" fill="#172033"/><rect x="4" y="4" width="96" height="32" rx="16" fill="#7C3AED"/><text x="52" y="26" text-anchor="middle" font-family="Arial, Helvetica, sans-serif" font-size="18" font-weight="700" fill="white" letter-spacing="1">ME</text></g></svg>