<svg xmlns="http://www.w3.org/2000/svg" viewBox="0 0 256 256" fill="none" role="img" aria-label="Sanbitter Bianco vetro"><title>Sanbitter Bianco vetro</title><desc>Aperitivi analcolici · Aperitivo analcolico bianco</desc><circle cx="128" cy="128" r="92" fill="#EC489933" fill-opacity="0.16"/><circle cx="128" cy="128" r="92" stroke="#EC4899" stroke-width="8"/><circle cx="128" cy="128" r="108" stroke="#172033" stroke-opacity="0.08" stroke-width="2"/><circle cx="78" cy="58" r="4.5" fill="#EC4899" fill-opacity="0.75"/><circle cx="125" cy="33" r="6" fill="#EC4899" fill-opacity="1"/><circle cx="175" cy="59" r="4.5" fill="#EC4899" fill-opacity="0.75"/><g stroke="#172033" stroke-width="10" stroke-linecap="round" stroke-linejoin="round"><path d="M88 84h80l-16 28c-6 10-16 16-28 16h-4c-12 0-22-6-28-16L88 84Z" fill="#EC489933"/><path d="M128 128v26"/><path d="M108 166h40"/></g><path d="M152 68l4 10 10 4-10 4-4 10-4-10-10-4 10-4Z" fill="#EC4899" stroke="none"/><path d="M182 106l6 14 14 6-14 6-6 14-6-14-14-6 14-6Z" fill="#EC4899" stroke="none"/><g transform="translate(168 36)"><rect x="0" y="0" width="52" height="28" rx="14" fill="#FFF7ED" stroke="#EC4899" stroke-width="3"/><text x="26" y="19" text-anchor="middle" font-family="Arial, Helvetica, sans-serif" font-size="12" font-weight="700" fill="#172033">PK</text></g><g transform="translate(76 176)"><rect x="0" y="0" width="104" height="40" rx="20" fill="#172033"/><rect x="4" y="4" width="96" height="32" rx="16" fill="#EC4899"/><text x="52" y="26" text-anchor="middle" font-family="Arial, Helvetica, sans-serif" font-size="18" font-weight="700" fill="white" letter-spacing="1">SB</text></g></svg>