<svg xmlns="http://www.w3.org/2000/svg" viewBox="0 0 256 256" fill="none" role="img" aria-label="Scamorza affumicata"><title>Scamorza affumicata</title><desc>Alimentari · Formaggio</desc><circle cx="128" cy="128" r="92" fill="#F9731633" fill-opacity="0.16"/><circle cx="128" cy="128" r="92" stroke="#F97316" stroke-width="8"/><circle cx="128" cy="128" r="108" stroke="#172033" stroke-opacity="0.08" stroke-width="2"/><circle cx="91" cy="53" r="4.5" fill="#F97316" fill-opacity="0.75"/><circle cx="117" cy="37" r="6" fill="#F97316" fill-opacity="1"/><circle cx="166" cy="61" r="4.5" fill="#F97316" fill-opacity="0.75"/><g stroke="#172033" stroke-width="10" stroke-linecap="round" stroke-linejoin="round"><path d="M84 142h88"/><path d="M94 140c4-30 34-50 62-42 18 5 31 20 36 42" fill="#F9731633"/><path d="M128 84v10"/></g><path d="M162 146l34-30 18 34h-52c-4 0-6-2-6-6v-2c0-2 2-4 6-4Z" fill="#F97316" fill-opacity="0.18" stroke="#F97316" stroke-width="6" stroke-linejoin="round"/><circle cx="184" cy="132" r="3" fill="#F97316" fill-opacity="0.22" stroke="#F97316" stroke-width="4"/><circle cx="194" cy="142" r="4" fill="#F97316" fill-opacity="0.22" stroke="#F97316" stroke-width="4"/><circle cx="174" cy="142" r="3" fill="#F97316" fill-opacity="0.22" stroke="#F97316" stroke-width="4"/><g transform="translate(168 36)"><rect x="0" y="0" width="52" height="28" rx="14" fill="#FFF7ED" stroke="#F97316" stroke-width="3"/><text x="26" y="19" text-anchor="middle" font-family="Arial, Helvetica, sans-serif" font-size="12" font-weight="700" fill="#172033">KG</text></g><g transform="translate(76 176)"><rect x="0" y="0" width="104" height="40" rx="20" fill="#172033"/><rect x="4" y="4" width="96" height="32" rx="16" fill="#F97316"/><text x="52" y="26" text-anchor="middle" font-family="Arial, Helvetica, sans-serif" font-size="18" font-weight="700" fill="white" letter-spacing="1">SA</text></g></svg>