<svg xmlns="http://www.w3.org/2000/svg" viewBox="0 0 256 256" fill="none" role="img" aria-label="Schweppes Tonica vetro 180 ml"><title>Schweppes Tonica vetro 180 ml</title><desc>Mixer · Bottiglietta vetro</desc><circle cx="128" cy="128" r="92" fill="#14B8A633" fill-opacity="0.16"/><circle cx="128" cy="128" r="92" stroke="#14B8A6" stroke-width="8"/><circle cx="128" cy="128" r="108" stroke="#172033" stroke-opacity="0.08" stroke-width="2"/><circle cx="90" cy="63" r="4.5" fill="#14B8A6" fill-opacity="0.75"/><circle cx="143" cy="59" r="6" fill="#14B8A6" fill-opacity="1"/><circle cx="176" cy="66" r="4.5" fill="#14B8A6" fill-opacity="0.75"/><g stroke="#172033" stroke-width="10" stroke-linecap="round" stroke-linejoin="round"><rect x="102" y="70" width="52" height="94" rx="14" fill="#14B8A633"/><path d="M116 86l24 64"/></g><circle cx="180" cy="110" r="8" fill="#14B8A6" fill-opacity="0.22" stroke="#14B8A6" stroke-width="4"/><circle cx="196" cy="124" r="12" fill="#14B8A6" fill-opacity="0.22" stroke="#14B8A6" stroke-width="4"/><circle cx="176" cy="136" r="6" fill="#14B8A6" fill-opacity="0.22" stroke="#14B8A6" stroke-width="4"/><circle cx="192" cy="148" r="4" fill="#14B8A6" fill-opacity="0.22" stroke="#14B8A6" stroke-width="4"/><g transform="translate(168 36)"><rect x="0" y="0" width="52" height="28" rx="14" fill="#FFF7ED" stroke="#14B8A6" stroke-width="3"/><text x="26" y="19" text-anchor="middle" font-family="Arial, Helvetica, sans-serif" font-size="12" font-weight="700" fill="#172033">PK</text></g><g transform="translate(76 176)"><rect x="0" y="0" width="104" height="40" rx="20" fill="#172033"/><rect x="4" y="4" width="96" height="32" rx="16" fill="#14B8A6"/><text x="52" y="26" text-anchor="middle" font-family="Arial, Helvetica, sans-serif" font-size="18" font-weight="700" fill="white" letter-spacing="1">ST</text></g></svg>