<svg xmlns="http://www.w3.org/2000/svg" viewBox="0 0 256 256" fill="none" role="img" aria-label="Succo mirtillo"><title>Succo mirtillo</title><desc>Succhi · Per miscelazione</desc><circle cx="128" cy="128" r="92" fill="#F9731633" fill-opacity="0.16"/><circle cx="128" cy="128" r="92" stroke="#F97316" stroke-width="8"/><circle cx="128" cy="128" r="108" stroke="#172033" stroke-opacity="0.08" stroke-width="2"/><circle cx="79" cy="51" r="4.5" fill="#F97316" fill-opacity="0.75"/><circle cx="128" cy="35" r="6" fill="#F97316" fill-opacity="1"/><circle cx="167" cy="55" r="4.5" fill="#F97316" fill-opacity="0.75"/><g stroke="#172033" stroke-width="10" stroke-linecap="round" stroke-linejoin="round"><path d="M104 78h38l12 18v58c0 8-6 14-14 14h-22c-8 0-14-6-14-14V78Z" fill="#F9731633"/><path d="M142 78l-10-18h-18"/></g><circle cx="170" cy="118" r="10" fill="#F97316" fill-opacity="0.22" stroke="#F97316" stroke-width="4"/><circle cx="188" cy="108" r="10" fill="#F97316" fill-opacity="0.22" stroke="#F97316" stroke-width="4"/><circle cx="194" cy="128" r="10" fill="#F97316" fill-opacity="0.22" stroke="#F97316" stroke-width="4"/><circle cx="176" cy="138" r="10" fill="#F97316" fill-opacity="0.22" stroke="#F97316" stroke-width="4"/><g transform="translate(168 36)"><rect x="0" y="0" width="52" height="28" rx="14" fill="#FFF7ED" stroke="#F97316" stroke-width="3"/><text x="26" y="19" text-anchor="middle" font-family="Arial, Helvetica, sans-serif" font-size="12" font-weight="700" fill="#172033">PK</text></g><g transform="translate(76 176)"><rect x="0" y="0" width="104" height="40" rx="20" fill="#172033"/><rect x="4" y="4" width="96" height="32" rx="16" fill="#F97316"/><text x="52" y="26" text-anchor="middle" font-family="Arial, Helvetica, sans-serif" font-size="18" font-weight="700" fill="white" letter-spacing="1">SM</text></g></svg>