<svg xmlns="http://www.w3.org/2000/svg" viewBox="0 0 256 256" fill="none" role="img" aria-label="Tovagliette carta"><title>Tovagliette carta</title><desc>Monouso · Tovagliette monouso</desc><circle cx="128" cy="128" r="92" fill="#64748B33" fill-opacity="0.16"/><circle cx="128" cy="128" r="92" stroke="#64748B" stroke-width="8"/><circle cx="128" cy="128" r="108" stroke="#172033" stroke-opacity="0.08" stroke-width="2"/><circle cx="87" cy="61" r="4.5" fill="#64748B" fill-opacity="0.75"/><circle cx="134" cy="57" r="6" fill="#64748B" fill-opacity="1"/><circle cx="184" cy="71" r="4.5" fill="#64748B" fill-opacity="0.75"/><g stroke="#172033" stroke-width="10" stroke-linecap="round" stroke-linejoin="round"><path d="M98 88h54c8 0 14 6 14 14v42c0 8-6 14-14 14h-54c-8 0-14-6-14-14v-42c0-8 6-14 14-14Z" fill="#64748B33"/><path d="M98 104h54"/><path d="M114 88v70"/></g><path d="M166 110h40v42h-40c-8 0-14-6-14-14v-14c0-8 6-14 14-14Z" fill="#64748B" fill-opacity="0.18" stroke="#64748B" stroke-width="6" stroke-linejoin="round"/><path d="M178 110v42" stroke="#64748B" stroke-width="6"/><g transform="translate(168 36)"><rect x="0" y="0" width="52" height="28" rx="14" fill="#FFF7ED" stroke="#64748B" stroke-width="3"/><text x="26" y="19" text-anchor="middle" font-family="Arial, Helvetica, sans-serif" font-size="12" font-weight="700" fill="#172033">PK</text></g><g transform="translate(76 176)"><rect x="0" y="0" width="104" height="40" rx="20" fill="#172033"/><rect x="4" y="4" width="96" height="32" rx="16" fill="#64748B"/><text x="52" y="26" text-anchor="middle" font-family="Arial, Helvetica, sans-serif" font-size="18" font-weight="700" fill="white" letter-spacing="1">TC</text></g></svg>